<svg width="13" height="14" viewBox="0 0 13 14" fill="none" xmlns="http://www.w3.org/2000/svg">
<path d="M12.35 0H0.65C0.26 0 0 0.24973 0 0.624324V11.8622C0 12.2368 0.26 12.4865 0.65 12.4865H12.35C12.74 12.4865 13 12.2368 13 11.8622V0.624324C13 0.24973 12.74 0 12.35 0ZM7.15 1.24865H8.45V2.4973H7.15V1.24865ZM4.55 1.24865H5.85V2.4973H4.55V1.24865ZM3.25 11.2378H1.95V9.98919H3.25V11.2378ZM3.25 2.4973H1.95V1.24865H3.25V2.4973ZM5.85 11.2378H4.55V9.98919H5.85V11.2378ZM8.45 11.2378H7.15V9.98919H8.45V11.2378ZM8.125 6.7427L5.525 8.61568C5.07 8.86541 4.55 8.61567 4.55 8.11622V4.37027C4.55 3.87081 5.07 3.62108 5.525 3.80838L8.125 5.68135C8.58 5.93108 8.58 6.55541 8.125 6.7427ZM11.05 11.2378H9.75V9.98919H11.05V11.2378ZM11.05 2.4973H9.75V1.24865H11.05V2.4973Z" fill="#43FFD2"/>
</svg>
